<svg xmlns="http://www.w3.org/2000/svg" width="489.026" height="232.272" viewBox="0 0 489.026 232.272">
  <g id="Grupo_127" data-name="Grupo 127" transform="translate(-188 -1000.728)">
    <path id="Caminho_128" data-name="Caminho 128" d="M69.3,0H419.731c38.271,0,69.3,25.276,69.3,56.455V175.817c0,31.179-31.025,56.455-69.3,56.455H69.3C31.025,232.272,0,207,0,175.817V56.455C0,25.276,31.025,0,69.3,0Z" transform="translate(188 1000.728)" fill="#fff"/>
    <g id="Grupo_56" data-name="Grupo 56" transform="translate(146.356 831.418)">
      <g id="Grupo_16" data-name="Grupo 16" transform="translate(150.038 204.732)">
        <path id="Caminho_10" data-name="Caminho 10" d="M1174.239,2640.885a7.2,7.2,0,0,0-7.2-7.2H909.176a7.2,7.2,0,0,0-7.2,7.2v165.539a7.2,7.2,0,0,0,7.2,7.2h257.866a7.2,7.2,0,0,0,7.2-7.2Z" transform="translate(-901.979 -2633.688)" fill="#445765" fill-rule="evenodd"/>
      </g>
      <g id="Grupo_17" data-name="Grupo 17" transform="translate(164.259 222.304)">
        <rect id="Ret창ngulo_6" data-name="Ret창ngulo 6" width="243.817" height="150.556" transform="translate(0)" fill="#5968f6"/>
      </g>
      <g id="Grupo_18" data-name="Grupo 18" transform="translate(109.644 361.057)">
        <path id="Caminho_11" data-name="Caminho 11" d="M839.869,2327.666a3.171,3.171,0,0,1,2.863-1.8c18.725-.016,157.509-.016,157.509-.016a3.616,3.616,0,0,1,2.7,1.259,4.582,4.582,0,0,1,1.119,3.042h0c0,10.66-7.686,19.305-17.163,19.305H668.183c-9.479,0-17.163-8.645-17.163-19.305h0a4.59,4.59,0,0,1,1.12-3.042,3.614,3.614,0,0,1,2.7-1.259h84.291a3.193,3.193,0,0,1,2.878,1.81,18.61,18.61,0,0,0,2.881,4.338c3.22.147,88.864.53,92.082,0A19.285,19.285,0,0,0,839.869,2327.666Z" transform="translate(-651.02 -2325.851)" fill="#445765" fill-rule="evenodd"/>
      </g>
      <g id="Grupo_19" data-name="Grupo 19" transform="translate(197.775 261.457)">
        <path id="Caminho_12" data-name="Caminho 12" d="M796.39,837.274a3.58,3.58,0,0,0-3.582-3.581H656.168a3.581,3.581,0,0,0-3.582,3.581v7.853h143.8Z" transform="translate(-652.587 -833.694)" fill="#6bc1ff" fill-rule="evenodd"/>
      </g>
      <g id="Grupo_20" data-name="Grupo 20" transform="translate(197.775 272.896)">
        <path id="Caminho_13" data-name="Caminho 13" d="M796.39-4828.336a3.58,3.58,0,0,1-3.582,3.58H656.168a3.581,3.581,0,0,1-3.582-3.58v-61.506h143.8Z" transform="translate(-652.587 4889.842)" fill="#fff" fill-rule="evenodd"/>
      </g>
      <g id="Grupo_21" data-name="Grupo 21" transform="translate(300.241 243.865)">
        <path id="Caminho_14" data-name="Caminho 14" d="M411.591,837.274a3.582,3.582,0,0,0-3.582-3.581H340.852a3.58,3.58,0,0,0-3.582,3.581v7.853h74.32Z" transform="translate(-337.27 -833.694)" fill="#6bc1ff" fill-rule="evenodd"/>
      </g>
      <g id="Grupo_22" data-name="Grupo 22" transform="translate(292.765 261.454)">
        <path id="Caminho_15" data-name="Caminho 15" d="M270.335-4873.653H225.1a3.583,3.583,0,0,1-3.582-3.58V-4939.4h48.814Z" transform="translate(-221.521 4939.398)" fill="rgba(0,0,0,0.07)" fill-rule="evenodd"/>
      </g>
      <g id="Grupo_23" data-name="Grupo 23" transform="translate(300.241 255.302)">
        <path id="Caminho_16" data-name="Caminho 16" d="M411.591-4828.336a3.58,3.58,0,0,1-1.05,2.531,3.563,3.563,0,0,1-2.533,1.049H340.852a3.567,3.567,0,0,1-2.533-1.049,3.579,3.579,0,0,1-1.049-2.531v-61.506h74.32Z" transform="translate(-337.27 4889.842)" fill="#fff" fill-rule="evenodd"/>
      </g>
      <g id="Grupo_24" data-name="Grupo 24" transform="translate(282.495 209.828)">
        <circle id="Elipse_3" data-name="Elipse 3" cx="3.672" cy="3.672" r="3.672" fill="#5969f6"/>
      </g>
      <g id="Grupo_25" data-name="Grupo 25" transform="translate(150.037 204.73)">
        <path id="Caminho_17" data-name="Caminho 17" d="M926.721,2092.219a10.9,10.9,0,0,1,.067,1.2v22.751a2.711,2.711,0,0,1,2.171,2.654V2130.2a2.712,2.712,0,0,1-2.171,2.66v3.027a2.717,2.717,0,0,1,2.171,2.66v20.873a2.707,2.707,0,0,1-2.171,2.655v74.25a10.907,10.907,0,0,1-10.9,10.906H861.3V2099.417a7.2,7.2,0,0,1,7.2-7.2Z" transform="translate(-861.297 -2092.219)" fill="rgba(0,0,0,0.07)" fill-rule="evenodd"/>
      </g>
      <g id="Grupo_26" data-name="Grupo 26" transform="translate(113.842 185.582)">
        <path id="Caminho_18" data-name="Caminho 18" d="M1372.208,1644.015a10.9,10.9,0,0,0-10.906-10.9h-70.957a10.909,10.909,0,0,0-10.906,10.9v142.911a10.909,10.909,0,0,0,10.906,10.9H1361.3a10.9,10.9,0,0,0,10.906-10.9Z" transform="translate(-1279.439 -1633.11)" fill="#445765" fill-rule="evenodd"/>
      </g>
      <g id="Grupo_27" data-name="Grupo 27" transform="translate(180.659 219.183)">
        <path id="Caminho_19" data-name="Caminho 19" d="M415.986,169.279a2.711,2.711,0,0,0-2.712-2.712H396.262a8.4,8.4,0,0,0-8.4,8.4v0a8.4,8.4,0,0,0,8.4,8.4h17.012a2.711,2.711,0,0,0,2.712-2.712Z" transform="translate(-387.863 -166.567)" fill="#6bc1ff" fill-rule="evenodd"/>
      </g>
      <g id="Grupo_28" data-name="Grupo 28" transform="translate(180.659 238.907)">
        <path id="Caminho_20" data-name="Caminho 20" d="M415.986,263.431a2.712,2.712,0,0,0-2.712-2.712H398.768a10.905,10.905,0,0,0-10.9,10.9v4.488a10.905,10.905,0,0,0,10.9,10.9h14.507a2.712,2.712,0,0,0,2.712-2.712Z" transform="translate(-387.863 -260.719)" fill="#6bc1ff" fill-rule="evenodd"/>
      </g>
      <g id="Grupo_29" data-name="Grupo 29" transform="translate(154.29 195.809)">
        <path id="Caminho_21" data-name="Caminho 21" d="M275.52,45.643a2.19,2.19,0,0,0-2.19-2.191H259.084a2.19,2.19,0,0,0-2.19,2.191h0a2.19,2.19,0,0,0,2.19,2.191H273.33a2.19,2.19,0,0,0,2.19-2.191Z" transform="translate(-256.893 -43.452)" fill="rgba(0,0,0,0.07)" fill-rule="evenodd"/>
      </g>
      <g id="Grupo_30" data-name="Grupo 30" transform="translate(118.426 208.592)">
        <rect id="Ret창ngulo_7" data-name="Ret창ngulo 7" width="83.598" height="118.701" transform="translate(0 0)" fill="#5968f6"/>
      </g>
      <g id="Grupo_31" data-name="Grupo 31" transform="translate(151.825 330.58)">
        <circle id="Elipse_4" data-name="Elipse 4" cx="8.4" cy="8.4" r="8.4" fill="rgba(0,0,0,0.07)"/>
      </g>
      <g id="Grupo_32" data-name="Grupo 32" transform="translate(147.533 195.807)">
        <circle id="Elipse_5" data-name="Elipse 5" cx="2.191" cy="2.191" r="2.191" fill="#5969f6"/>
      </g>
      <g id="Grupo_33" data-name="Grupo 33" transform="translate(124.087 214.437)">
        <path id="Caminho_22" data-name="Caminho 22" d="M1369.1,890.685a.637.637,0,0,0-.637-.639h-71a.64.64,0,0,0-.641.639v11.5a.64.64,0,0,0,.641.639h71a.637.637,0,0,0,.637-.639Z" transform="translate(-1296.824 -890.046)" fill="#fff" fill-rule="evenodd"/>
      </g>
      <g id="Grupo_34" data-name="Grupo 34" transform="translate(124.087 233.721)">
        <path id="Caminho_23" data-name="Caminho 23" d="M1369.1,4631.556a3.322,3.322,0,0,0-3.322-3.324H1300.15a3.323,3.323,0,0,0-3.325,3.324v59.825a3.323,3.323,0,0,0,3.325,3.323h65.627a3.322,3.322,0,0,0,3.322-3.323Z" transform="translate(-1296.824 -4628.232)" fill="rgba(0,0,0,0.07)" fill-rule="evenodd"/>
      </g>
      <g id="Grupo_35" data-name="Grupo 35" transform="translate(124.85 308.594)">
        <path id="Caminho_24" data-name="Caminho 24" d="M263.29,890.685a.639.639,0,0,0-.639-.639H250.03a.639.639,0,0,0-.639.639v11.5a.639.639,0,0,0,.639.639h12.621a.639.639,0,0,0,.639-.639Z" transform="translate(-249.391 -890.046)" fill="#fff" fill-rule="evenodd"/>
      </g>
      <g id="Grupo_36" data-name="Grupo 36" transform="translate(143.842 308.594)">
        <path id="Caminho_25" data-name="Caminho 25" d="M263.29,890.685a.639.639,0,0,0-.639-.639H250.03a.639.639,0,0,0-.639.639v11.5a.639.639,0,0,0,.639.639h12.621a.639.639,0,0,0,.639-.639Z" transform="translate(-249.391 -890.046)" fill="#fff" fill-rule="evenodd"/>
      </g>
      <g id="Grupo_37" data-name="Grupo 37" transform="translate(162.834 308.594)">
        <path id="Caminho_26" data-name="Caminho 26" d="M263.29,890.685a.639.639,0,0,0-.639-.639H250.03a.639.639,0,0,0-.639.639v11.5a.639.639,0,0,0,.639.639h12.621a.639.639,0,0,0,.639-.639Z" transform="translate(-249.391 -890.046)" fill="#fff" fill-rule="evenodd"/>
      </g>
      <g id="Grupo_38" data-name="Grupo 38" transform="translate(181.826 308.594)">
        <path id="Caminho_27" data-name="Caminho 27" d="M263.29,890.685a.639.639,0,0,0-.639-.639H250.03a.639.639,0,0,0-.639.639v11.5a.639.639,0,0,0,.639.639h12.621a.639.639,0,0,0,.639-.639Z" transform="translate(-249.391 -890.046)" fill="#fff" fill-rule="evenodd"/>
      </g>
    </g>
  </g>
</svg>
